<mxfile host="app.diagrams.net" modified="2022-12-06T12:31:37.355Z" agent="5.0 (Windows NT 10.0; Win64; x64) AppleWebKit/537.36 (KHTML, like Gecko) Chrome/108.0.0.0 Safari/537.36" etag="GvWPV27Qk3kBQpHPNhel" version="20.6.0" type="github">
  <diagram id="C5RBs43oDa-KdzZeNtuy" name="Page-1">
    <mxGraphModel dx="2213" dy="1673" grid="1" gridSize="10" guides="1" tooltips="1" connect="1" arrows="1" fold="1" page="1" pageScale="1" pageWidth="827" pageHeight="1169" math="0" shadow="0">
      <root>
        <mxCell id="WIyWlLk6GJQsqaUBKTNV-0" />
        <mxCell id="WIyWlLk6GJQsqaUBKTNV-1" parent="WIyWlLk6GJQsqaUBKTNV-0" />
        <mxCell id="zkfFHV4jXpPFQw0GAbJ--0" value="Person" style="swimlane;fontStyle=2;align=center;verticalAlign=top;childLayout=stackLayout;horizontal=1;startSize=26;horizontalStack=0;resizeParent=1;resizeLast=0;collapsible=1;marginBottom=0;rounded=0;shadow=0;strokeWidth=1;" parent="WIyWlLk6GJQsqaUBKTNV-1" vertex="1">
          <mxGeometry x="280" y="720" width="160" height="138" as="geometry">
            <mxRectangle x="230" y="140" width="160" height="26" as="alternateBounds" />
          </mxGeometry>
        </mxCell>
        <mxCell id="zkfFHV4jXpPFQw0GAbJ--1" value="Name" style="text;align=left;verticalAlign=top;spacingLeft=4;spacingRight=4;overflow=hidden;rotatable=0;points=[[0,0.5],[1,0.5]];portConstraint=eastwest;" parent="zkfFHV4jXpPFQw0GAbJ--0" vertex="1">
          <mxGeometry y="26" width="160" height="26" as="geometry" />
        </mxCell>
        <mxCell id="zkfFHV4jXpPFQw0GAbJ--2" value="Phone Number" style="text;align=left;verticalAlign=top;spacingLeft=4;spacingRight=4;overflow=hidden;rotatable=0;points=[[0,0.5],[1,0.5]];portConstraint=eastwest;rounded=0;shadow=0;html=0;" parent="zkfFHV4jXpPFQw0GAbJ--0" vertex="1">
          <mxGeometry y="52" width="160" height="26" as="geometry" />
        </mxCell>
        <mxCell id="zkfFHV4jXpPFQw0GAbJ--3" value="Email Address" style="text;align=left;verticalAlign=top;spacingLeft=4;spacingRight=4;overflow=hidden;rotatable=0;points=[[0,0.5],[1,0.5]];portConstraint=eastwest;rounded=0;shadow=0;html=0;" parent="zkfFHV4jXpPFQw0GAbJ--0" vertex="1">
          <mxGeometry y="78" width="160" height="26" as="geometry" />
        </mxCell>
        <mxCell id="zkfFHV4jXpPFQw0GAbJ--4" value="" style="line;html=1;strokeWidth=1;align=left;verticalAlign=middle;spacingTop=-1;spacingLeft=3;spacingRight=3;rotatable=0;labelPosition=right;points=[];portConstraint=eastwest;" parent="zkfFHV4jXpPFQw0GAbJ--0" vertex="1">
          <mxGeometry y="104" width="160" height="8" as="geometry" />
        </mxCell>
        <mxCell id="zkfFHV4jXpPFQw0GAbJ--5" value="Purchase Parking Pass" style="text;align=left;verticalAlign=top;spacingLeft=4;spacingRight=4;overflow=hidden;rotatable=0;points=[[0,0.5],[1,0.5]];portConstraint=eastwest;" parent="zkfFHV4jXpPFQw0GAbJ--0" vertex="1">
          <mxGeometry y="112" width="160" height="26" as="geometry" />
        </mxCell>
        <mxCell id="zkfFHV4jXpPFQw0GAbJ--6" value="Student" style="swimlane;fontStyle=0;align=center;verticalAlign=top;childLayout=stackLayout;horizontal=1;startSize=26;horizontalStack=0;resizeParent=1;resizeLast=0;collapsible=1;marginBottom=0;rounded=0;shadow=0;strokeWidth=1;" parent="WIyWlLk6GJQsqaUBKTNV-1" vertex="1">
          <mxGeometry x="230" y="940" width="160" height="138" as="geometry">
            <mxRectangle x="130" y="380" width="160" height="26" as="alternateBounds" />
          </mxGeometry>
        </mxCell>
        <mxCell id="zkfFHV4jXpPFQw0GAbJ--7" value="Student Number" style="text;align=left;verticalAlign=top;spacingLeft=4;spacingRight=4;overflow=hidden;rotatable=0;points=[[0,0.5],[1,0.5]];portConstraint=eastwest;" parent="zkfFHV4jXpPFQw0GAbJ--6" vertex="1">
          <mxGeometry y="26" width="160" height="26" as="geometry" />
        </mxCell>
        <mxCell id="zkfFHV4jXpPFQw0GAbJ--8" value="Average Mark" style="text;align=left;verticalAlign=top;spacingLeft=4;spacingRight=4;overflow=hidden;rotatable=0;points=[[0,0.5],[1,0.5]];portConstraint=eastwest;rounded=0;shadow=0;html=0;" parent="zkfFHV4jXpPFQw0GAbJ--6" vertex="1">
          <mxGeometry y="52" width="160" height="26" as="geometry" />
        </mxCell>
        <mxCell id="zkfFHV4jXpPFQw0GAbJ--9" value="" style="line;html=1;strokeWidth=1;align=left;verticalAlign=middle;spacingTop=-1;spacingLeft=3;spacingRight=3;rotatable=0;labelPosition=right;points=[];portConstraint=eastwest;" parent="zkfFHV4jXpPFQw0GAbJ--6" vertex="1">
          <mxGeometry y="78" width="160" height="8" as="geometry" />
        </mxCell>
        <mxCell id="zkfFHV4jXpPFQw0GAbJ--10" value="Is Eligible To Enroll" style="text;align=left;verticalAlign=top;spacingLeft=4;spacingRight=4;overflow=hidden;rotatable=0;points=[[0,0.5],[1,0.5]];portConstraint=eastwest;fontStyle=4" parent="zkfFHV4jXpPFQw0GAbJ--6" vertex="1">
          <mxGeometry y="86" width="160" height="26" as="geometry" />
        </mxCell>
        <mxCell id="zkfFHV4jXpPFQw0GAbJ--11" value="Get Seminars Taken" style="text;align=left;verticalAlign=top;spacingLeft=4;spacingRight=4;overflow=hidden;rotatable=0;points=[[0,0.5],[1,0.5]];portConstraint=eastwest;" parent="zkfFHV4jXpPFQw0GAbJ--6" vertex="1">
          <mxGeometry y="112" width="160" height="26" as="geometry" />
        </mxCell>
        <mxCell id="zkfFHV4jXpPFQw0GAbJ--12" value="" style="endArrow=block;endSize=10;endFill=0;shadow=0;strokeWidth=1;rounded=0;edgeStyle=elbowEdgeStyle;elbow=vertical;" parent="WIyWlLk6GJQsqaUBKTNV-1" source="zkfFHV4jXpPFQw0GAbJ--6" target="zkfFHV4jXpPFQw0GAbJ--0" edge="1">
          <mxGeometry width="160" relative="1" as="geometry">
            <mxPoint x="200" y="203" as="sourcePoint" />
            <mxPoint x="200" y="203" as="targetPoint" />
          </mxGeometry>
        </mxCell>
        <mxCell id="zkfFHV4jXpPFQw0GAbJ--13" value="Professor" style="swimlane;fontStyle=0;align=center;verticalAlign=top;childLayout=stackLayout;horizontal=1;startSize=26;horizontalStack=0;resizeParent=1;resizeLast=0;collapsible=1;marginBottom=0;rounded=0;shadow=0;strokeWidth=1;" parent="WIyWlLk6GJQsqaUBKTNV-1" vertex="1">
          <mxGeometry x="600" y="990" width="160" height="70" as="geometry">
            <mxRectangle x="340" y="380" width="170" height="26" as="alternateBounds" />
          </mxGeometry>
        </mxCell>
        <mxCell id="zkfFHV4jXpPFQw0GAbJ--14" value="Salary" style="text;align=left;verticalAlign=top;spacingLeft=4;spacingRight=4;overflow=hidden;rotatable=0;points=[[0,0.5],[1,0.5]];portConstraint=eastwest;" parent="zkfFHV4jXpPFQw0GAbJ--13" vertex="1">
          <mxGeometry y="26" width="160" height="26" as="geometry" />
        </mxCell>
        <mxCell id="zkfFHV4jXpPFQw0GAbJ--15" value="" style="line;html=1;strokeWidth=1;align=left;verticalAlign=middle;spacingTop=-1;spacingLeft=3;spacingRight=3;rotatable=0;labelPosition=right;points=[];portConstraint=eastwest;" parent="zkfFHV4jXpPFQw0GAbJ--13" vertex="1">
          <mxGeometry y="52" width="160" height="8" as="geometry" />
        </mxCell>
        <mxCell id="zkfFHV4jXpPFQw0GAbJ--16" value="" style="endArrow=block;endSize=10;endFill=0;shadow=0;strokeWidth=1;rounded=0;edgeStyle=elbowEdgeStyle;elbow=vertical;" parent="WIyWlLk6GJQsqaUBKTNV-1" source="zkfFHV4jXpPFQw0GAbJ--13" target="zkfFHV4jXpPFQw0GAbJ--0" edge="1">
          <mxGeometry width="160" relative="1" as="geometry">
            <mxPoint x="210" y="373" as="sourcePoint" />
            <mxPoint x="310" y="271" as="targetPoint" />
          </mxGeometry>
        </mxCell>
        <mxCell id="zkfFHV4jXpPFQw0GAbJ--17" value="Address" style="swimlane;fontStyle=0;align=center;verticalAlign=top;childLayout=stackLayout;horizontal=1;startSize=26;horizontalStack=0;resizeParent=1;resizeLast=0;collapsible=1;marginBottom=0;rounded=0;shadow=0;strokeWidth=1;" parent="WIyWlLk6GJQsqaUBKTNV-1" vertex="1">
          <mxGeometry x="600" y="710" width="160" height="216" as="geometry">
            <mxRectangle x="550" y="140" width="160" height="26" as="alternateBounds" />
          </mxGeometry>
        </mxCell>
        <mxCell id="zkfFHV4jXpPFQw0GAbJ--18" value="Street" style="text;align=left;verticalAlign=top;spacingLeft=4;spacingRight=4;overflow=hidden;rotatable=0;points=[[0,0.5],[1,0.5]];portConstraint=eastwest;" parent="zkfFHV4jXpPFQw0GAbJ--17" vertex="1">
          <mxGeometry y="26" width="160" height="26" as="geometry" />
        </mxCell>
        <mxCell id="zkfFHV4jXpPFQw0GAbJ--19" value="City" style="text;align=left;verticalAlign=top;spacingLeft=4;spacingRight=4;overflow=hidden;rotatable=0;points=[[0,0.5],[1,0.5]];portConstraint=eastwest;rounded=0;shadow=0;html=0;" parent="zkfFHV4jXpPFQw0GAbJ--17" vertex="1">
          <mxGeometry y="52" width="160" height="26" as="geometry" />
        </mxCell>
        <mxCell id="zkfFHV4jXpPFQw0GAbJ--20" value="State" style="text;align=left;verticalAlign=top;spacingLeft=4;spacingRight=4;overflow=hidden;rotatable=0;points=[[0,0.5],[1,0.5]];portConstraint=eastwest;rounded=0;shadow=0;html=0;" parent="zkfFHV4jXpPFQw0GAbJ--17" vertex="1">
          <mxGeometry y="78" width="160" height="26" as="geometry" />
        </mxCell>
        <mxCell id="zkfFHV4jXpPFQw0GAbJ--21" value="Postal Code" style="text;align=left;verticalAlign=top;spacingLeft=4;spacingRight=4;overflow=hidden;rotatable=0;points=[[0,0.5],[1,0.5]];portConstraint=eastwest;rounded=0;shadow=0;html=0;" parent="zkfFHV4jXpPFQw0GAbJ--17" vertex="1">
          <mxGeometry y="104" width="160" height="26" as="geometry" />
        </mxCell>
        <mxCell id="zkfFHV4jXpPFQw0GAbJ--22" value="Country" style="text;align=left;verticalAlign=top;spacingLeft=4;spacingRight=4;overflow=hidden;rotatable=0;points=[[0,0.5],[1,0.5]];portConstraint=eastwest;rounded=0;shadow=0;html=0;" parent="zkfFHV4jXpPFQw0GAbJ--17" vertex="1">
          <mxGeometry y="130" width="160" height="26" as="geometry" />
        </mxCell>
        <mxCell id="zkfFHV4jXpPFQw0GAbJ--23" value="" style="line;html=1;strokeWidth=1;align=left;verticalAlign=middle;spacingTop=-1;spacingLeft=3;spacingRight=3;rotatable=0;labelPosition=right;points=[];portConstraint=eastwest;" parent="zkfFHV4jXpPFQw0GAbJ--17" vertex="1">
          <mxGeometry y="156" width="160" height="8" as="geometry" />
        </mxCell>
        <mxCell id="zkfFHV4jXpPFQw0GAbJ--24" value="Validate" style="text;align=left;verticalAlign=top;spacingLeft=4;spacingRight=4;overflow=hidden;rotatable=0;points=[[0,0.5],[1,0.5]];portConstraint=eastwest;" parent="zkfFHV4jXpPFQw0GAbJ--17" vertex="1">
          <mxGeometry y="164" width="160" height="26" as="geometry" />
        </mxCell>
        <mxCell id="zkfFHV4jXpPFQw0GAbJ--25" value="Output As Label" style="text;align=left;verticalAlign=top;spacingLeft=4;spacingRight=4;overflow=hidden;rotatable=0;points=[[0,0.5],[1,0.5]];portConstraint=eastwest;" parent="zkfFHV4jXpPFQw0GAbJ--17" vertex="1">
          <mxGeometry y="190" width="160" height="26" as="geometry" />
        </mxCell>
        <mxCell id="zkfFHV4jXpPFQw0GAbJ--26" value="" style="endArrow=open;shadow=0;strokeWidth=1;rounded=0;endFill=1;edgeStyle=elbowEdgeStyle;elbow=vertical;" parent="WIyWlLk6GJQsqaUBKTNV-1" source="zkfFHV4jXpPFQw0GAbJ--0" target="zkfFHV4jXpPFQw0GAbJ--17" edge="1">
          <mxGeometry x="0.5" y="41" relative="1" as="geometry">
            <mxPoint x="380" y="192" as="sourcePoint" />
            <mxPoint x="540" y="192" as="targetPoint" />
            <mxPoint x="-40" y="32" as="offset" />
          </mxGeometry>
        </mxCell>
        <mxCell id="zkfFHV4jXpPFQw0GAbJ--27" value="0..1" style="resizable=0;align=left;verticalAlign=bottom;labelBackgroundColor=none;fontSize=12;" parent="zkfFHV4jXpPFQw0GAbJ--26" connectable="0" vertex="1">
          <mxGeometry x="-1" relative="1" as="geometry">
            <mxPoint y="4" as="offset" />
          </mxGeometry>
        </mxCell>
        <mxCell id="zkfFHV4jXpPFQw0GAbJ--28" value="1" style="resizable=0;align=right;verticalAlign=bottom;labelBackgroundColor=none;fontSize=12;" parent="zkfFHV4jXpPFQw0GAbJ--26" connectable="0" vertex="1">
          <mxGeometry x="1" relative="1" as="geometry">
            <mxPoint x="-7" y="4" as="offset" />
          </mxGeometry>
        </mxCell>
        <mxCell id="zkfFHV4jXpPFQw0GAbJ--29" value="lives at" style="text;html=1;resizable=0;points=[];;align=center;verticalAlign=middle;labelBackgroundColor=none;rounded=0;shadow=0;strokeWidth=1;fontSize=12;" parent="zkfFHV4jXpPFQw0GAbJ--26" vertex="1" connectable="0">
          <mxGeometry x="0.5" y="49" relative="1" as="geometry">
            <mxPoint x="-38" y="40" as="offset" />
          </mxGeometry>
        </mxCell>
        <mxCell id="xb9jFqV9OKnzRcWdRGj2-71" value="Customer" style="swimlane;fontStyle=1;align=center;verticalAlign=top;childLayout=stackLayout;horizontal=1;startSize=26;horizontalStack=0;resizeParent=1;resizeParentMax=0;resizeLast=0;collapsible=1;marginBottom=0;" vertex="1" parent="WIyWlLk6GJQsqaUBKTNV-1">
          <mxGeometry x="-267" y="-790" width="230" height="294" as="geometry" />
        </mxCell>
        <mxCell id="xb9jFqV9OKnzRcWdRGj2-72" value="- name: String&#xa;- contactInfo: String&#xa;- vehicles: List&lt;Vehicle&gt;&#xa;- claims: List&lt;Claim&gt;&#xa;- payments: List&lt;Payment&gt;" style="text;strokeColor=none;fillColor=none;align=left;verticalAlign=top;spacingLeft=4;spacingRight=4;overflow=hidden;rotatable=0;points=[[0,0.5],[1,0.5]];portConstraint=eastwest;" vertex="1" parent="xb9jFqV9OKnzRcWdRGj2-71">
          <mxGeometry y="26" width="230" height="90" as="geometry" />
        </mxCell>
        <mxCell id="xb9jFqV9OKnzRcWdRGj2-73" value="" style="line;strokeWidth=1;fillColor=none;align=left;verticalAlign=middle;spacingTop=-1;spacingLeft=3;spacingRight=3;rotatable=0;labelPosition=right;points=[];portConstraint=eastwest;strokeColor=inherit;" vertex="1" parent="xb9jFqV9OKnzRcWdRGj2-71">
          <mxGeometry y="116" width="230" height="8" as="geometry" />
        </mxCell>
        <mxCell id="xb9jFqV9OKnzRcWdRGj2-74" value="+ getName(): String&#xa;+ getContactInfo(): String&#xa;+ setContactInfo(String):&#xa;+ setName(String):&#xa;+ updateVehicles(Vehicle): &#xa;+ getVehicles(): List&lt;Vehicle&gt;&#xa;+ makePayment(double):&#xa;+ getPayments(): List&lt;Payment&gt;&#xa;+ addClaim(Claim):&#xa;+ getClaims(): List&lt;Claim&gt; &#xa;+ toString(): String" style="text;strokeColor=none;fillColor=none;align=left;verticalAlign=top;spacingLeft=4;spacingRight=4;overflow=hidden;rotatable=0;points=[[0,0.5],[1,0.5]];portConstraint=eastwest;" vertex="1" parent="xb9jFqV9OKnzRcWdRGj2-71">
          <mxGeometry y="124" width="230" height="170" as="geometry" />
        </mxCell>
        <mxCell id="xb9jFqV9OKnzRcWdRGj2-75" value="Vehicle" style="swimlane;fontStyle=1;align=center;verticalAlign=top;childLayout=stackLayout;horizontal=1;startSize=26;horizontalStack=0;resizeParent=1;resizeParentMax=0;resizeLast=0;collapsible=1;marginBottom=0;" vertex="1" parent="WIyWlLk6GJQsqaUBKTNV-1">
          <mxGeometry x="103" y="-764" width="220" height="242" as="geometry" />
        </mxCell>
        <mxCell id="xb9jFqV9OKnzRcWdRGj2-76" value="- registrationNumber: String&#xa;- policies: List&lt;InsurancePolicy&gt;&#xa;- currentValue: double&#xa;- damagedInventory: List&lt;String&gt;&#xa;- currentState: String" style="text;strokeColor=none;fillColor=none;align=left;verticalAlign=top;spacingLeft=4;spacingRight=4;overflow=hidden;rotatable=0;points=[[0,0.5],[1,0.5]];portConstraint=eastwest;" vertex="1" parent="xb9jFqV9OKnzRcWdRGj2-75">
          <mxGeometry y="26" width="220" height="84" as="geometry" />
        </mxCell>
        <mxCell id="xb9jFqV9OKnzRcWdRGj2-77" value="" style="line;strokeWidth=1;fillColor=none;align=left;verticalAlign=middle;spacingTop=-1;spacingLeft=3;spacingRight=3;rotatable=0;labelPosition=right;points=[];portConstraint=eastwest;strokeColor=inherit;" vertex="1" parent="xb9jFqV9OKnzRcWdRGj2-75">
          <mxGeometry y="110" width="220" height="8" as="geometry" />
        </mxCell>
        <mxCell id="xb9jFqV9OKnzRcWdRGj2-78" value="+ getRegistrationNumber: String&#xa;+ addPolicy(Policy): &#xa;+ getPolicies(): List&lt;InsurancePolicy&gt;&#xa;+ getDamagedInventory(): List&lt;String&gt;&#xa;+ updateInventory(String):&#xa;+ setCurrentState(String):&#xa;+ getCurrentState(double):&#xa;+ toString(): String" style="text;strokeColor=none;fillColor=none;align=left;verticalAlign=top;spacingLeft=4;spacingRight=4;overflow=hidden;rotatable=0;points=[[0,0.5],[1,0.5]];portConstraint=eastwest;" vertex="1" parent="xb9jFqV9OKnzRcWdRGj2-75">
          <mxGeometry y="118" width="220" height="124" as="geometry" />
        </mxCell>
        <mxCell id="xb9jFqV9OKnzRcWdRGj2-79" style="edgeStyle=orthogonalEdgeStyle;rounded=0;orthogonalLoop=1;jettySize=auto;html=1;endArrow=diamondThin;endFill=0;horizontal=0;startArrow=none;startFill=0;" edge="1" parent="WIyWlLk6GJQsqaUBKTNV-1" source="xb9jFqV9OKnzRcWdRGj2-81" target="xb9jFqV9OKnzRcWdRGj2-75">
          <mxGeometry relative="1" as="geometry">
            <Array as="points">
              <mxPoint x="-152" y="-870" />
              <mxPoint x="213" y="-870" />
            </Array>
          </mxGeometry>
        </mxCell>
        <mxCell id="xb9jFqV9OKnzRcWdRGj2-80" value="has" style="edgeLabel;html=1;align=center;verticalAlign=middle;resizable=0;points=[];" vertex="1" connectable="0" parent="xb9jFqV9OKnzRcWdRGj2-79">
          <mxGeometry x="-0.0711" relative="1" as="geometry">
            <mxPoint as="offset" />
          </mxGeometry>
        </mxCell>
        <mxCell id="xb9jFqV9OKnzRcWdRGj2-81" value="InsurancePolicy" style="swimlane;fontStyle=1;align=center;verticalAlign=top;childLayout=stackLayout;horizontal=1;startSize=26;horizontalStack=0;resizeParent=1;resizeParentMax=0;resizeLast=0;collapsible=1;marginBottom=0;" vertex="1" parent="WIyWlLk6GJQsqaUBKTNV-1">
          <mxGeometry x="-272" y="-1112" width="240" height="214" as="geometry" />
        </mxCell>
        <mxCell id="xb9jFqV9OKnzRcWdRGj2-82" value="- policyID: int&#xa;- plans: List&lt;InsurancePlan&gt;&#xa;- risksCovered: List&lt;Risk&gt;&#xa;- vehicle: Vehicle" style="text;strokeColor=none;fillColor=none;align=left;verticalAlign=top;spacingLeft=4;spacingRight=4;overflow=hidden;rotatable=0;points=[[0,0.5],[1,0.5]];portConstraint=eastwest;" vertex="1" parent="xb9jFqV9OKnzRcWdRGj2-81">
          <mxGeometry y="26" width="240" height="64" as="geometry" />
        </mxCell>
        <mxCell id="xb9jFqV9OKnzRcWdRGj2-83" value="" style="line;strokeWidth=1;fillColor=none;align=left;verticalAlign=middle;spacingTop=-1;spacingLeft=3;spacingRight=3;rotatable=0;labelPosition=right;points=[];portConstraint=eastwest;strokeColor=inherit;" vertex="1" parent="xb9jFqV9OKnzRcWdRGj2-81">
          <mxGeometry y="90" width="240" height="8" as="geometry" />
        </mxCell>
        <mxCell id="xb9jFqV9OKnzRcWdRGj2-84" value="+ getPolicyID(): int&#xa;+ getRisksCovered(): List&lt;Risk&gt;&#xa;+ updateVehicle(double):&#xa;+ addPlan(InsurancePlan):&#xa;+ addRisksCovered(Risk):&#xa;+ getPolicyData(): String&#xa;+ toString(): String" style="text;strokeColor=none;fillColor=none;align=left;verticalAlign=top;spacingLeft=4;spacingRight=4;overflow=hidden;rotatable=0;points=[[0,0.5],[1,0.5]];portConstraint=eastwest;" vertex="1" parent="xb9jFqV9OKnzRcWdRGj2-81">
          <mxGeometry y="98" width="240" height="116" as="geometry" />
        </mxCell>
        <mxCell id="xb9jFqV9OKnzRcWdRGj2-85" value="Receipt" style="swimlane;fontStyle=1;align=center;verticalAlign=top;childLayout=stackLayout;horizontal=1;startSize=26;horizontalStack=0;resizeParent=1;resizeParentMax=0;resizeLast=0;collapsible=1;marginBottom=0;" vertex="1" parent="WIyWlLk6GJQsqaUBKTNV-1">
          <mxGeometry x="-217" y="-100" width="170" height="218" as="geometry" />
        </mxCell>
        <mxCell id="xb9jFqV9OKnzRcWdRGj2-86" value="- receiptID: int&#xa;- paymentID: int&#xa;- paymentBy: String&#xa;- paymentTo: String&#xa;- date: String" style="text;strokeColor=none;fillColor=none;align=left;verticalAlign=top;spacingLeft=4;spacingRight=4;overflow=hidden;rotatable=0;points=[[0,0.5],[1,0.5]];portConstraint=eastwest;" vertex="1" parent="xb9jFqV9OKnzRcWdRGj2-85">
          <mxGeometry y="26" width="170" height="84" as="geometry" />
        </mxCell>
        <mxCell id="xb9jFqV9OKnzRcWdRGj2-87" value="" style="line;strokeWidth=1;fillColor=none;align=left;verticalAlign=middle;spacingTop=-1;spacingLeft=3;spacingRight=3;rotatable=0;labelPosition=right;points=[];portConstraint=eastwest;strokeColor=inherit;" vertex="1" parent="xb9jFqV9OKnzRcWdRGj2-85">
          <mxGeometry y="110" width="170" height="8" as="geometry" />
        </mxCell>
        <mxCell id="xb9jFqV9OKnzRcWdRGj2-88" value="+ setReceiptID(int):&#xa;+ setPayer(String):&#xa;+ setPayee(String):&#xa;+ setDate(String):&#xa;+ setPaymentID(int):&#xa;+ toString(): String" style="text;strokeColor=none;fillColor=none;align=left;verticalAlign=top;spacingLeft=4;spacingRight=4;overflow=hidden;rotatable=0;points=[[0,0.5],[1,0.5]];portConstraint=eastwest;" vertex="1" parent="xb9jFqV9OKnzRcWdRGj2-85">
          <mxGeometry y="118" width="170" height="100" as="geometry" />
        </mxCell>
        <mxCell id="xb9jFqV9OKnzRcWdRGj2-89" style="edgeStyle=orthogonalEdgeStyle;rounded=0;orthogonalLoop=1;jettySize=auto;html=1;entryX=0;entryY=0.5;entryDx=0;entryDy=0;endArrow=none;endFill=0;" edge="1" parent="WIyWlLk6GJQsqaUBKTNV-1" source="xb9jFqV9OKnzRcWdRGj2-91" target="xb9jFqV9OKnzRcWdRGj2-98">
          <mxGeometry relative="1" as="geometry" />
        </mxCell>
        <mxCell id="xb9jFqV9OKnzRcWdRGj2-90" value="generates" style="edgeLabel;html=1;align=center;verticalAlign=middle;resizable=0;points=[];" vertex="1" connectable="0" parent="xb9jFqV9OKnzRcWdRGj2-89">
          <mxGeometry x="-0.5705" relative="1" as="geometry">
            <mxPoint as="offset" />
          </mxGeometry>
        </mxCell>
        <mxCell id="xb9jFqV9OKnzRcWdRGj2-91" value="Claim" style="swimlane;fontStyle=1;align=center;verticalAlign=top;childLayout=stackLayout;horizontal=1;startSize=26;horizontalStack=0;resizeParent=1;resizeParentMax=0;resizeLast=0;collapsible=1;marginBottom=0;" vertex="1" parent="WIyWlLk6GJQsqaUBKTNV-1">
          <mxGeometry x="-637" y="-790" width="220" height="306" as="geometry" />
        </mxCell>
        <mxCell id="xb9jFqV9OKnzRcWdRGj2-92" value="- claimID: int&#xa;- paymentsDue: List&lt;double&gt;&#xa;- settlements: List&lt;Settlement&gt;&#xa;- justfications: List&lt;String&gt;&#xa;- vehicle: Vehicle&#xa;- damagedInventory: List&lt;String&gt;&#xa;- dateTime: String" style="text;strokeColor=none;fillColor=none;align=left;verticalAlign=top;spacingLeft=4;spacingRight=4;overflow=hidden;rotatable=0;points=[[0,0.5],[1,0.5]];portConstraint=eastwest;" vertex="1" parent="xb9jFqV9OKnzRcWdRGj2-91">
          <mxGeometry y="26" width="220" height="104" as="geometry" />
        </mxCell>
        <mxCell id="xb9jFqV9OKnzRcWdRGj2-93" value="" style="line;strokeWidth=1;fillColor=none;align=left;verticalAlign=middle;spacingTop=-1;spacingLeft=3;spacingRight=3;rotatable=0;labelPosition=right;points=[];portConstraint=eastwest;strokeColor=inherit;" vertex="1" parent="xb9jFqV9OKnzRcWdRGj2-91">
          <mxGeometry y="130" width="220" height="8" as="geometry" />
        </mxCell>
        <mxCell id="xb9jFqV9OKnzRcWdRGj2-94" value="+ getClaimID: int&#xa;+ getPaymentsDue(): List&lt;double&gt;&#xa;+ getSettlements(): List&lt;Settlement&gt;&#xa;+ getVehicle(): Vehicle&#xa;+ getJustifications: List&lt;String&gt;&#xa;+ getDamagedInventory: List&lt;String&gt;&#xa;+ setDamagedInventory(List&lt;String&gt;):&#xa;+ setDateTime(String):&#xa;+ getDateTime(): String&#xa;+ createSettlement():&#xa;+ toString(): String" style="text;strokeColor=none;fillColor=none;align=left;verticalAlign=top;spacingLeft=4;spacingRight=4;overflow=hidden;rotatable=0;points=[[0,0.5],[1,0.5]];portConstraint=eastwest;" vertex="1" parent="xb9jFqV9OKnzRcWdRGj2-91">
          <mxGeometry y="138" width="220" height="168" as="geometry" />
        </mxCell>
        <mxCell id="xb9jFqV9OKnzRcWdRGj2-95" style="edgeStyle=orthogonalEdgeStyle;rounded=0;orthogonalLoop=1;jettySize=auto;html=1;entryX=-0.003;entryY=0.024;entryDx=0;entryDy=0;entryPerimeter=0;endArrow=none;endFill=0;startArrow=diamondThin;startFill=0;" edge="1" parent="WIyWlLk6GJQsqaUBKTNV-1" source="xb9jFqV9OKnzRcWdRGj2-97" target="xb9jFqV9OKnzRcWdRGj2-88">
          <mxGeometry relative="1" as="geometry" />
        </mxCell>
        <mxCell id="xb9jFqV9OKnzRcWdRGj2-96" value="generates" style="edgeLabel;html=1;align=center;verticalAlign=middle;resizable=0;points=[];" vertex="1" connectable="0" parent="xb9jFqV9OKnzRcWdRGj2-95">
          <mxGeometry x="-0.0272" y="1" relative="1" as="geometry">
            <mxPoint as="offset" />
          </mxGeometry>
        </mxCell>
        <mxCell id="xb9jFqV9OKnzRcWdRGj2-97" value="Settlement" style="swimlane;fontStyle=1;align=center;verticalAlign=top;childLayout=stackLayout;horizontal=1;startSize=26;horizontalStack=0;resizeParent=1;resizeParentMax=0;resizeLast=0;collapsible=1;marginBottom=0;" vertex="1" parent="WIyWlLk6GJQsqaUBKTNV-1">
          <mxGeometry x="-427" y="-425" width="213.5" height="272" as="geometry" />
        </mxCell>
        <mxCell id="xb9jFqV9OKnzRcWdRGj2-98" value="- settlementID: int&#xa;- claim: Claim&#xa;- paymentDue: double&#xa;- vehicle : Vehicle&#xa;- rejected: Boolean" style="text;strokeColor=none;fillColor=none;align=left;verticalAlign=top;spacingLeft=4;spacingRight=4;overflow=hidden;rotatable=0;points=[[0,0.5],[1,0.5]];portConstraint=eastwest;" vertex="1" parent="xb9jFqV9OKnzRcWdRGj2-97">
          <mxGeometry y="26" width="213.5" height="84" as="geometry" />
        </mxCell>
        <mxCell id="xb9jFqV9OKnzRcWdRGj2-99" value="" style="line;strokeWidth=1;fillColor=none;align=left;verticalAlign=middle;spacingTop=-1;spacingLeft=3;spacingRight=3;rotatable=0;labelPosition=right;points=[];portConstraint=eastwest;strokeColor=inherit;" vertex="1" parent="xb9jFqV9OKnzRcWdRGj2-97">
          <mxGeometry y="110" width="213.5" height="8" as="geometry" />
        </mxCell>
        <mxCell id="xb9jFqV9OKnzRcWdRGj2-100" value="+ getSettlementID(): int&#xa;+ getPaymentDue(): double&#xa;+ getClaim(): Claim&#xa;+ getVehicle(): Vehicle&#xa;+ getRejected(): Boolean&#xa;# verifyClaim():&#xa;# updatePlanCoverageCap():&#xa;# updateVehicleStateAndValue():&#xa;+ void settle():&#xa;+ toString(): String" style="text;strokeColor=none;fillColor=none;align=left;verticalAlign=top;spacingLeft=4;spacingRight=4;overflow=hidden;rotatable=0;points=[[0,0.5],[1,0.5]];portConstraint=eastwest;" vertex="1" parent="xb9jFqV9OKnzRcWdRGj2-97">
          <mxGeometry y="118" width="213.5" height="154" as="geometry" />
        </mxCell>
        <mxCell id="xb9jFqV9OKnzRcWdRGj2-101" value="InsurancePlan" style="swimlane;fontStyle=1;align=center;verticalAlign=top;childLayout=stackLayout;horizontal=1;startSize=26;horizontalStack=0;resizeParent=1;resizeParentMax=0;resizeLast=0;collapsible=1;marginBottom=0;" vertex="1" parent="WIyWlLk6GJQsqaUBKTNV-1">
          <mxGeometry x="103" y="-1151" width="260" height="250" as="geometry" />
        </mxCell>
        <mxCell id="xb9jFqV9OKnzRcWdRGj2-102" value="- planID: int&#xa;- risksCovered: List&lt;Risk&gt;&#xa;- premium: double&#xa;- coverage: double&#xa;- coverageCap: int&#xa;- deathCoverage: int" style="text;strokeColor=none;fillColor=none;align=left;verticalAlign=top;spacingLeft=4;spacingRight=4;overflow=hidden;rotatable=0;points=[[0,0.5],[1,0.5]];portConstraint=eastwest;" vertex="1" parent="xb9jFqV9OKnzRcWdRGj2-101">
          <mxGeometry y="26" width="260" height="90" as="geometry" />
        </mxCell>
        <mxCell id="xb9jFqV9OKnzRcWdRGj2-103" value="" style="line;strokeWidth=1;fillColor=none;align=left;verticalAlign=middle;spacingTop=-1;spacingLeft=3;spacingRight=3;rotatable=0;labelPosition=right;points=[];portConstraint=eastwest;strokeColor=inherit;" vertex="1" parent="xb9jFqV9OKnzRcWdRGj2-101">
          <mxGeometry y="116" width="260" height="8" as="geometry" />
        </mxCell>
        <mxCell id="xb9jFqV9OKnzRcWdRGj2-104" value="+ getPlanID(): int&#xa;+ getPremium(): double&#xa;+ getCoverage(): double&#xa;+ getCoverageCap(): double&#xa;+ getDeathCoverage(): double&#xa;+ updateCoverageCeiling(double): double&#xa;+ updateDeathCoverage(): double&#xa;+ toString(): String " style="text;strokeColor=none;fillColor=none;align=left;verticalAlign=top;spacingLeft=4;spacingRight=4;overflow=hidden;rotatable=0;points=[[0,0.5],[1,0.5]];portConstraint=eastwest;" vertex="1" parent="xb9jFqV9OKnzRcWdRGj2-101">
          <mxGeometry y="124" width="260" height="126" as="geometry" />
        </mxCell>
        <mxCell id="xb9jFqV9OKnzRcWdRGj2-105" value="has" style="edgeStyle=orthogonalEdgeStyle;rounded=0;orthogonalLoop=1;jettySize=auto;html=1;entryX=0.571;entryY=-0.01;entryDx=0;entryDy=0;entryPerimeter=0;endArrow=none;endFill=0;startArrow=diamondThin;startFill=0;" edge="1" parent="WIyWlLk6GJQsqaUBKTNV-1" source="xb9jFqV9OKnzRcWdRGj2-106" target="xb9jFqV9OKnzRcWdRGj2-91">
          <mxGeometry relative="1" as="geometry" />
        </mxCell>
        <mxCell id="xb9jFqV9OKnzRcWdRGj2-106" value="InsuranceCompany" style="swimlane;fontStyle=1;align=center;verticalAlign=top;childLayout=stackLayout;horizontal=1;startSize=26;horizontalStack=0;resizeParent=1;resizeParentMax=0;resizeLast=0;collapsible=1;marginBottom=0;" vertex="1" parent="WIyWlLk6GJQsqaUBKTNV-1">
          <mxGeometry x="-685" y="-1151" width="270" height="292" as="geometry" />
        </mxCell>
        <mxCell id="xb9jFqV9OKnzRcWdRGj2-107" value="- customerRecord: Map&lt;Integer, User&gt;&#xa;- paymentRecord: Map&lt;Integer, Payment&gt;&#xa;- claimsRecord: Map&lt;Integer, Claim&gt;&#xa;- settlementsRecord: Map&lt;Integer, Settlement&gt;&#xa;- policyRecord: Map&lt;Integer, InsurancePolicy&gt;&#xa;- receiptRecord: Map&lt;Integer, Receipt&gt;" style="text;strokeColor=none;fillColor=none;align=left;verticalAlign=top;spacingLeft=4;spacingRight=4;overflow=hidden;rotatable=0;points=[[0,0.5],[1,0.5]];portConstraint=eastwest;" vertex="1" parent="xb9jFqV9OKnzRcWdRGj2-106">
          <mxGeometry y="26" width="270" height="90" as="geometry" />
        </mxCell>
        <mxCell id="xb9jFqV9OKnzRcWdRGj2-108" value="" style="line;strokeWidth=1;fillColor=none;align=left;verticalAlign=middle;spacingTop=-1;spacingLeft=3;spacingRight=3;rotatable=0;labelPosition=right;points=[];portConstraint=eastwest;strokeColor=inherit;" vertex="1" parent="xb9jFqV9OKnzRcWdRGj2-106">
          <mxGeometry y="116" width="270" height="8" as="geometry" />
        </mxCell>
        <mxCell id="xb9jFqV9OKnzRcWdRGj2-109" value="+ getCustomerRecord(int): Customer&#xa;+ setCustomerRecord(int, Customer):&#xa;+ getPaymentRecord(int): Payment&#xa;+ setPaymentRecord(int, Payment):&#xa;+ getSettlementRecord(int): Settlement&#xa;+ setSettlementRecord(int, Settlement):&#xa;+ getClaimRecord(int): Claim&#xa;+ setClaimRecord(int, Claim):&#xa;+ getPolicyRecord(int): Policy&#xa;+ setPolicyRecord(int, Policy):&#xa;+ claimSettlements():&#xa;" style="text;strokeColor=none;fillColor=none;align=left;verticalAlign=top;spacingLeft=4;spacingRight=4;overflow=hidden;rotatable=0;points=[[0,0.5],[1,0.5]];portConstraint=eastwest;" vertex="1" parent="xb9jFqV9OKnzRcWdRGj2-106">
          <mxGeometry y="124" width="270" height="168" as="geometry" />
        </mxCell>
        <mxCell id="xb9jFqV9OKnzRcWdRGj2-110" style="edgeStyle=orthogonalEdgeStyle;rounded=0;orthogonalLoop=1;jettySize=auto;html=1;entryX=1;entryY=0.5;entryDx=0;entryDy=0;endArrow=none;endFill=0;startArrow=diamond;startFill=0;" edge="1" parent="WIyWlLk6GJQsqaUBKTNV-1" source="xb9jFqV9OKnzRcWdRGj2-112" target="xb9jFqV9OKnzRcWdRGj2-86">
          <mxGeometry relative="1" as="geometry" />
        </mxCell>
        <mxCell id="xb9jFqV9OKnzRcWdRGj2-111" value="generates" style="edgeLabel;html=1;align=center;verticalAlign=middle;resizable=0;points=[];" vertex="1" connectable="0" parent="xb9jFqV9OKnzRcWdRGj2-110">
          <mxGeometry x="-0.4595" y="1" relative="1" as="geometry">
            <mxPoint as="offset" />
          </mxGeometry>
        </mxCell>
        <mxCell id="xb9jFqV9OKnzRcWdRGj2-112" value="Payment" style="swimlane;fontStyle=1;align=center;verticalAlign=top;childLayout=stackLayout;horizontal=1;startSize=26;horizontalStack=0;resizeParent=1;resizeParentMax=0;resizeLast=0;collapsible=1;marginBottom=0;" vertex="1" parent="WIyWlLk6GJQsqaUBKTNV-1">
          <mxGeometry x="414" y="-150" width="190" height="238" as="geometry" />
        </mxCell>
        <mxCell id="xb9jFqV9OKnzRcWdRGj2-113" value="- paymentID: int&#xa;- planID: int&#xa;- premiumAmount: int&#xa;- dateTime: String&#xa;- customerName: String&#xa;" style="text;strokeColor=none;fillColor=none;align=left;verticalAlign=top;spacingLeft=4;spacingRight=4;overflow=hidden;rotatable=0;points=[[0,0.5],[1,0.5]];portConstraint=eastwest;" vertex="1" parent="xb9jFqV9OKnzRcWdRGj2-112">
          <mxGeometry y="26" width="190" height="80" as="geometry" />
        </mxCell>
        <mxCell id="xb9jFqV9OKnzRcWdRGj2-114" value="" style="line;strokeWidth=1;fillColor=none;align=left;verticalAlign=middle;spacingTop=-1;spacingLeft=3;spacingRight=3;rotatable=0;labelPosition=right;points=[];portConstraint=eastwest;strokeColor=inherit;" vertex="1" parent="xb9jFqV9OKnzRcWdRGj2-112">
          <mxGeometry y="106" width="190" height="8" as="geometry" />
        </mxCell>
        <mxCell id="xb9jFqV9OKnzRcWdRGj2-115" value="+ getPaymentID(): int&#xa;+ getPremiumAmound(): double&#xa;+ getCustomerName(): String&#xa;+ getDateTime(): String&#xa;+ setDateTime(String):&#xa;+ setCustomerName(String):&#xa;+ setPlanID(int): &#xa;+ toString(): String" style="text;strokeColor=none;fillColor=none;align=left;verticalAlign=top;spacingLeft=4;spacingRight=4;overflow=hidden;rotatable=0;points=[[0,0.5],[1,0.5]];portConstraint=eastwest;" vertex="1" parent="xb9jFqV9OKnzRcWdRGj2-112">
          <mxGeometry y="114" width="190" height="124" as="geometry" />
        </mxCell>
        <mxCell id="xb9jFqV9OKnzRcWdRGj2-116" value="has" style="edgeStyle=orthogonalEdgeStyle;rounded=0;orthogonalLoop=1;jettySize=auto;html=1;exitX=1;exitY=0.5;exitDx=0;exitDy=0;endArrow=none;endFill=0;startArrow=diamondThin;startFill=1;" edge="1" parent="WIyWlLk6GJQsqaUBKTNV-1" source="xb9jFqV9OKnzRcWdRGj2-72" target="xb9jFqV9OKnzRcWdRGj2-76">
          <mxGeometry relative="1" as="geometry">
            <Array as="points">
              <mxPoint x="33" y="-719" />
              <mxPoint x="33" y="-696" />
            </Array>
          </mxGeometry>
        </mxCell>
        <mxCell id="xb9jFqV9OKnzRcWdRGj2-117" value="generates" style="edgeStyle=orthogonalEdgeStyle;rounded=0;orthogonalLoop=1;jettySize=auto;html=1;entryX=1.007;entryY=0.359;entryDx=0;entryDy=0;entryPerimeter=0;endArrow=none;endFill=0;" edge="1" parent="WIyWlLk6GJQsqaUBKTNV-1" source="xb9jFqV9OKnzRcWdRGj2-74" target="xb9jFqV9OKnzRcWdRGj2-92">
          <mxGeometry relative="1" as="geometry" />
        </mxCell>
        <mxCell id="xb9jFqV9OKnzRcWdRGj2-118" style="edgeStyle=orthogonalEdgeStyle;rounded=0;orthogonalLoop=1;jettySize=auto;html=1;exitX=1;exitY=0.5;exitDx=0;exitDy=0;entryX=0.006;entryY=0.324;entryDx=0;entryDy=0;entryPerimeter=0;endArrow=none;endFill=0;startArrow=diamondThin;startFill=1;" edge="1" parent="WIyWlLk6GJQsqaUBKTNV-1" source="xb9jFqV9OKnzRcWdRGj2-82" target="xb9jFqV9OKnzRcWdRGj2-102">
          <mxGeometry relative="1" as="geometry" />
        </mxCell>
        <mxCell id="xb9jFqV9OKnzRcWdRGj2-119" value="has" style="edgeLabel;html=1;align=center;verticalAlign=middle;resizable=0;points=[];" vertex="1" connectable="0" parent="xb9jFqV9OKnzRcWdRGj2-118">
          <mxGeometry x="0.3182" y="-1" relative="1" as="geometry">
            <mxPoint as="offset" />
          </mxGeometry>
        </mxCell>
        <mxCell id="xb9jFqV9OKnzRcWdRGj2-120" style="edgeStyle=orthogonalEdgeStyle;rounded=0;orthogonalLoop=1;jettySize=auto;html=1;exitX=1;exitY=0.5;exitDx=0;exitDy=0;entryX=0;entryY=0.5;entryDx=0;entryDy=0;endArrow=none;endFill=0;startArrow=diamondThin;startFill=1;" edge="1" parent="WIyWlLk6GJQsqaUBKTNV-1" source="xb9jFqV9OKnzRcWdRGj2-109" target="xb9jFqV9OKnzRcWdRGj2-82">
          <mxGeometry relative="1" as="geometry" />
        </mxCell>
        <mxCell id="xb9jFqV9OKnzRcWdRGj2-121" value="has" style="edgeLabel;html=1;align=center;verticalAlign=middle;resizable=0;points=[];" vertex="1" connectable="0" parent="xb9jFqV9OKnzRcWdRGj2-120">
          <mxGeometry x="0.4777" y="2" relative="1" as="geometry">
            <mxPoint x="1" as="offset" />
          </mxGeometry>
        </mxCell>
        <mxCell id="xb9jFqV9OKnzRcWdRGj2-122" style="edgeStyle=orthogonalEdgeStyle;rounded=0;orthogonalLoop=1;jettySize=auto;html=1;entryX=0.001;entryY=0.11;entryDx=0;entryDy=0;entryPerimeter=0;endArrow=none;endFill=0;startArrow=diamond;startFill=0;" edge="1" parent="WIyWlLk6GJQsqaUBKTNV-1" source="xb9jFqV9OKnzRcWdRGj2-109" target="xb9jFqV9OKnzRcWdRGj2-72">
          <mxGeometry relative="1" as="geometry">
            <Array as="points">
              <mxPoint x="-342" y="-901" />
              <mxPoint x="-342" y="-754" />
            </Array>
          </mxGeometry>
        </mxCell>
        <mxCell id="xb9jFqV9OKnzRcWdRGj2-123" value="has" style="edgeLabel;html=1;align=center;verticalAlign=middle;resizable=0;points=[];" vertex="1" connectable="0" parent="xb9jFqV9OKnzRcWdRGj2-122">
          <mxGeometry x="-0.6393" y="-1" relative="1" as="geometry">
            <mxPoint as="offset" />
          </mxGeometry>
        </mxCell>
        <mxCell id="xb9jFqV9OKnzRcWdRGj2-124" style="edgeStyle=orthogonalEdgeStyle;rounded=0;orthogonalLoop=1;jettySize=auto;html=1;exitX=0;exitY=0.5;exitDx=0;exitDy=0;entryX=-0.01;entryY=0.295;entryDx=0;entryDy=0;entryPerimeter=0;endArrow=none;endFill=0;startArrow=diamondThin;startFill=0;" edge="1" parent="WIyWlLk6GJQsqaUBKTNV-1" source="xb9jFqV9OKnzRcWdRGj2-109" target="xb9jFqV9OKnzRcWdRGj2-100">
          <mxGeometry relative="1" as="geometry">
            <Array as="points">
              <mxPoint x="-737" y="-943" />
              <mxPoint x="-737" y="-262" />
            </Array>
          </mxGeometry>
        </mxCell>
        <mxCell id="xb9jFqV9OKnzRcWdRGj2-125" style="edgeStyle=orthogonalEdgeStyle;rounded=0;orthogonalLoop=1;jettySize=auto;html=1;endArrow=none;endFill=0;" edge="1" parent="WIyWlLk6GJQsqaUBKTNV-1" source="xb9jFqV9OKnzRcWdRGj2-109">
          <mxGeometry relative="1" as="geometry">
            <mxPoint x="-219" y="80" as="targetPoint" />
            <Array as="points">
              <mxPoint x="-767" y="-943" />
              <mxPoint x="-767" y="80" />
            </Array>
          </mxGeometry>
        </mxCell>
        <mxCell id="xb9jFqV9OKnzRcWdRGj2-126" style="edgeStyle=orthogonalEdgeStyle;rounded=0;orthogonalLoop=1;jettySize=auto;html=1;endArrow=none;endFill=0;" edge="1" parent="WIyWlLk6GJQsqaUBKTNV-1" source="xb9jFqV9OKnzRcWdRGj2-109">
          <mxGeometry relative="1" as="geometry">
            <mxPoint x="520" y="90" as="targetPoint" />
            <Array as="points">
              <mxPoint x="-797" y="-943" />
              <mxPoint x="-797" y="150" />
              <mxPoint x="520" y="150" />
            </Array>
          </mxGeometry>
        </mxCell>
        <mxCell id="xb9jFqV9OKnzRcWdRGj2-127" value="has" style="edgeLabel;html=1;align=center;verticalAlign=middle;resizable=0;points=[];" vertex="1" connectable="0" parent="xb9jFqV9OKnzRcWdRGj2-126">
          <mxGeometry x="-0.9807" y="1" relative="1" as="geometry">
            <mxPoint as="offset" />
          </mxGeometry>
        </mxCell>
        <mxCell id="xb9jFqV9OKnzRcWdRGj2-128" value="1..*" style="text;html=1;align=center;verticalAlign=middle;resizable=0;points=[];autosize=1;strokeColor=none;fillColor=none;" vertex="1" parent="WIyWlLk6GJQsqaUBKTNV-1">
          <mxGeometry x="70" y="-1119" width="40" height="30" as="geometry" />
        </mxCell>
        <mxCell id="xb9jFqV9OKnzRcWdRGj2-129" value="1..*" style="text;html=1;align=center;verticalAlign=middle;resizable=0;points=[];autosize=1;strokeColor=none;fillColor=none;" vertex="1" parent="WIyWlLk6GJQsqaUBKTNV-1">
          <mxGeometry x="-307" y="-1081" width="40" height="30" as="geometry" />
        </mxCell>
        <mxCell id="xb9jFqV9OKnzRcWdRGj2-130" value="0..*" style="text;html=1;align=center;verticalAlign=middle;resizable=0;points=[];autosize=1;strokeColor=none;fillColor=none;" vertex="1" parent="WIyWlLk6GJQsqaUBKTNV-1">
          <mxGeometry x="-157" y="-906" width="40" height="30" as="geometry" />
        </mxCell>
        <mxCell id="xb9jFqV9OKnzRcWdRGj2-131" value="1..*" style="text;html=1;align=center;verticalAlign=middle;resizable=0;points=[];autosize=1;strokeColor=none;fillColor=none;" vertex="1" parent="WIyWlLk6GJQsqaUBKTNV-1">
          <mxGeometry x="66" y="-699" width="40" height="30" as="geometry" />
        </mxCell>
        <mxCell id="xb9jFqV9OKnzRcWdRGj2-132" value="1..*" style="text;html=1;align=center;verticalAlign=middle;resizable=0;points=[];autosize=1;strokeColor=none;fillColor=none;" vertex="1" parent="WIyWlLk6GJQsqaUBKTNV-1">
          <mxGeometry x="-469" y="-386" width="40" height="30" as="geometry" />
        </mxCell>
        <mxCell id="xb9jFqV9OKnzRcWdRGj2-133" value="1" style="text;html=1;align=center;verticalAlign=middle;resizable=0;points=[];autosize=1;strokeColor=none;fillColor=none;" vertex="1" parent="WIyWlLk6GJQsqaUBKTNV-1">
          <mxGeometry x="-246" y="-6" width="30" height="30" as="geometry" />
        </mxCell>
        <mxCell id="xb9jFqV9OKnzRcWdRGj2-134" value="1" style="text;html=1;align=center;verticalAlign=middle;resizable=0;points=[];autosize=1;strokeColor=none;fillColor=none;" vertex="1" parent="WIyWlLk6GJQsqaUBKTNV-1">
          <mxGeometry x="-51" y="-59" width="30" height="30" as="geometry" />
        </mxCell>
        <mxCell id="xb9jFqV9OKnzRcWdRGj2-135" value="1" style="text;html=1;align=center;verticalAlign=middle;resizable=0;points=[];autosize=1;strokeColor=none;fillColor=none;" vertex="1" parent="WIyWlLk6GJQsqaUBKTNV-1">
          <mxGeometry x="-317" y="-153" width="30" height="30" as="geometry" />
        </mxCell>
        <mxCell id="xb9jFqV9OKnzRcWdRGj2-136" value="1" style="text;html=1;align=center;verticalAlign=middle;resizable=0;points=[];autosize=1;strokeColor=none;fillColor=none;" vertex="1" parent="WIyWlLk6GJQsqaUBKTNV-1">
          <mxGeometry x="3" y="-170" width="30" height="30" as="geometry" />
        </mxCell>
        <mxCell id="xb9jFqV9OKnzRcWdRGj2-137" value="1..*" style="text;html=1;align=center;verticalAlign=middle;resizable=0;points=[];autosize=1;strokeColor=none;fillColor=none;" vertex="1" parent="WIyWlLk6GJQsqaUBKTNV-1">
          <mxGeometry x="-469" y="-304" width="40" height="30" as="geometry" />
        </mxCell>
        <mxCell id="xb9jFqV9OKnzRcWdRGj2-138" value="1..*" style="text;html=1;align=center;verticalAlign=middle;resizable=0;points=[];autosize=1;strokeColor=none;fillColor=none;" vertex="1" parent="WIyWlLk6GJQsqaUBKTNV-1">
          <mxGeometry x="-267" y="49" width="40" height="30" as="geometry" />
        </mxCell>
        <mxCell id="xb9jFqV9OKnzRcWdRGj2-139" value="1..*" style="text;html=1;align=center;verticalAlign=middle;resizable=0;points=[];autosize=1;strokeColor=none;fillColor=none;" vertex="1" parent="WIyWlLk6GJQsqaUBKTNV-1">
          <mxGeometry x="530" y="100" width="40" height="30" as="geometry" />
        </mxCell>
        <mxCell id="xb9jFqV9OKnzRcWdRGj2-140" value="0..*" style="text;html=1;align=center;verticalAlign=middle;resizable=0;points=[];autosize=1;strokeColor=none;fillColor=none;" vertex="1" parent="WIyWlLk6GJQsqaUBKTNV-1">
          <mxGeometry x="-407" y="-764" width="40" height="30" as="geometry" />
        </mxCell>
        <mxCell id="xb9jFqV9OKnzRcWdRGj2-141" value="1..*" style="text;html=1;align=center;verticalAlign=middle;resizable=0;points=[];autosize=1;strokeColor=none;fillColor=none;" vertex="1" parent="WIyWlLk6GJQsqaUBKTNV-1">
          <mxGeometry x="-322" y="-794" width="40" height="30" as="geometry" />
        </mxCell>
      </root>
    </mxGraphModel>
  </diagram>
</mxfile>
